<mxfile host="app.diagrams.net" modified="2022-10-31T10:38:58.483Z" agent="5.0 (Windows NT 10.0; Win64; x64) AppleWebKit/537.36 (KHTML, like Gecko) Chrome/106.0.0.0 Safari/537.36" etag="MWmtjP1tJBfvZoo76wyv" version="20.5.1" type="github">
  <diagram id="C5RBs43oDa-KdzZeNtuy" name="Page-1">
    <mxGraphModel dx="1117" dy="1838" grid="1" gridSize="10" guides="1" tooltips="1" connect="1" arrows="1" fold="1" page="1" pageScale="1" pageWidth="827" pageHeight="1169" math="0" shadow="0">
      <root>
        <mxCell id="WIyWlLk6GJQsqaUBKTNV-0" />
        <mxCell id="WIyWlLk6GJQsqaUBKTNV-1" parent="WIyWlLk6GJQsqaUBKTNV-0" />
        <mxCell id="WIyWlLk6GJQsqaUBKTNV-3" value="Chad me (2L)" style="rounded=1;whiteSpace=wrap;html=1;fontSize=12;glass=0;strokeWidth=1;shadow=0;" parent="WIyWlLk6GJQsqaUBKTNV-1" vertex="1">
          <mxGeometry x="270" y="-290" width="120" height="40" as="geometry" />
        </mxCell>
        <mxCell id="a1IRn4NeAn26UEId_gsX-3" style="edgeStyle=orthogonalEdgeStyle;rounded=0;orthogonalLoop=1;jettySize=auto;html=1;" edge="1" parent="WIyWlLk6GJQsqaUBKTNV-1" source="WIyWlLk6GJQsqaUBKTNV-10" target="a1IRn4NeAn26UEId_gsX-2">
          <mxGeometry relative="1" as="geometry" />
        </mxCell>
        <mxCell id="a1IRn4NeAn26UEId_gsX-13" value="2 years&amp;nbsp;" style="edgeLabel;html=1;align=center;verticalAlign=middle;resizable=0;points=[];" vertex="1" connectable="0" parent="a1IRn4NeAn26UEId_gsX-3">
          <mxGeometry x="0.3306" y="-1" relative="1" as="geometry">
            <mxPoint as="offset" />
          </mxGeometry>
        </mxCell>
        <mxCell id="WIyWlLk6GJQsqaUBKTNV-10" value="MICRON (50k)" style="rhombus;whiteSpace=wrap;html=1;shadow=0;fontFamily=Helvetica;fontSize=12;align=center;strokeWidth=1;spacing=6;spacingTop=-4;" parent="WIyWlLk6GJQsqaUBKTNV-1" vertex="1">
          <mxGeometry x="170" y="290" width="100" height="80" as="geometry" />
        </mxCell>
        <mxCell id="a1IRn4NeAn26UEId_gsX-1" style="edgeStyle=orthogonalEdgeStyle;rounded=0;orthogonalLoop=1;jettySize=auto;html=1;entryX=0.5;entryY=1;entryDx=0;entryDy=0;" edge="1" parent="WIyWlLk6GJQsqaUBKTNV-1" source="WIyWlLk6GJQsqaUBKTNV-11" target="WIyWlLk6GJQsqaUBKTNV-10">
          <mxGeometry relative="1" as="geometry" />
        </mxCell>
        <mxCell id="WIyWlLk6GJQsqaUBKTNV-11" value="Broke me" style="rounded=1;whiteSpace=wrap;html=1;fontSize=12;glass=0;strokeWidth=1;shadow=0;" parent="WIyWlLk6GJQsqaUBKTNV-1" vertex="1">
          <mxGeometry x="160" y="430" width="120" height="40" as="geometry" />
        </mxCell>
        <mxCell id="a1IRn4NeAn26UEId_gsX-8" style="edgeStyle=orthogonalEdgeStyle;rounded=0;orthogonalLoop=1;jettySize=auto;html=1;entryX=0.102;entryY=1.196;entryDx=0;entryDy=0;entryPerimeter=0;" edge="1" parent="WIyWlLk6GJQsqaUBKTNV-1" source="a1IRn4NeAn26UEId_gsX-2" target="WIyWlLk6GJQsqaUBKTNV-3">
          <mxGeometry relative="1" as="geometry" />
        </mxCell>
        <mxCell id="a1IRn4NeAn26UEId_gsX-10" style="edgeStyle=orthogonalEdgeStyle;rounded=0;orthogonalLoop=1;jettySize=auto;html=1;" edge="1" parent="WIyWlLk6GJQsqaUBKTNV-1" source="a1IRn4NeAn26UEId_gsX-2" target="a1IRn4NeAn26UEId_gsX-9">
          <mxGeometry relative="1" as="geometry" />
        </mxCell>
        <mxCell id="a1IRn4NeAn26UEId_gsX-2" value="Continue in MICRON" style="rhombus;whiteSpace=wrap;html=1;shadow=0;fontFamily=Helvetica;fontSize=12;align=center;strokeWidth=1;spacing=6;spacingTop=-4;" vertex="1" parent="WIyWlLk6GJQsqaUBKTNV-1">
          <mxGeometry x="170" y="140" width="100" height="80" as="geometry" />
        </mxCell>
        <mxCell id="a1IRn4NeAn26UEId_gsX-14" style="edgeStyle=orthogonalEdgeStyle;rounded=0;orthogonalLoop=1;jettySize=auto;html=1;entryX=0.588;entryY=1.178;entryDx=0;entryDy=0;entryPerimeter=0;" edge="1" parent="WIyWlLk6GJQsqaUBKTNV-1" source="a1IRn4NeAn26UEId_gsX-9" target="WIyWlLk6GJQsqaUBKTNV-3">
          <mxGeometry relative="1" as="geometry">
            <Array as="points">
              <mxPoint x="380" y="-60" />
              <mxPoint x="341" y="-60" />
            </Array>
          </mxGeometry>
        </mxCell>
        <mxCell id="a1IRn4NeAn26UEId_gsX-15" value="&amp;nbsp;2 years&amp;nbsp;" style="edgeLabel;html=1;align=center;verticalAlign=middle;resizable=0;points=[];" vertex="1" connectable="0" parent="a1IRn4NeAn26UEId_gsX-14">
          <mxGeometry x="-0.2835" y="2" relative="1" as="geometry">
            <mxPoint as="offset" />
          </mxGeometry>
        </mxCell>
        <mxCell id="a1IRn4NeAn26UEId_gsX-17" style="edgeStyle=orthogonalEdgeStyle;rounded=0;orthogonalLoop=1;jettySize=auto;html=1;" edge="1" parent="WIyWlLk6GJQsqaUBKTNV-1" source="a1IRn4NeAn26UEId_gsX-9" target="a1IRn4NeAn26UEId_gsX-16">
          <mxGeometry relative="1" as="geometry" />
        </mxCell>
        <mxCell id="a1IRn4NeAn26UEId_gsX-9" value="MS in abroad" style="rhombus;whiteSpace=wrap;html=1;shadow=0;fontFamily=Helvetica;fontSize=12;align=center;strokeWidth=1;spacing=6;spacingTop=-4;" vertex="1" parent="WIyWlLk6GJQsqaUBKTNV-1">
          <mxGeometry x="330" y="140" width="100" height="80" as="geometry" />
        </mxCell>
        <mxCell id="a1IRn4NeAn26UEId_gsX-18" style="edgeStyle=orthogonalEdgeStyle;rounded=0;orthogonalLoop=1;jettySize=auto;html=1;entryX=0.845;entryY=1.108;entryDx=0;entryDy=0;entryPerimeter=0;startArrow=none;" edge="1" parent="WIyWlLk6GJQsqaUBKTNV-1" source="a1IRn4NeAn26UEId_gsX-26" target="WIyWlLk6GJQsqaUBKTNV-3">
          <mxGeometry relative="1" as="geometry">
            <Array as="points">
              <mxPoint x="371" y="-160" />
            </Array>
          </mxGeometry>
        </mxCell>
        <mxCell id="a1IRn4NeAn26UEId_gsX-29" style="edgeStyle=orthogonalEdgeStyle;rounded=0;orthogonalLoop=1;jettySize=auto;html=1;entryX=0.573;entryY=0.918;entryDx=0;entryDy=0;entryPerimeter=0;fontSize=36;" edge="1" parent="WIyWlLk6GJQsqaUBKTNV-1" source="a1IRn4NeAn26UEId_gsX-16" target="a1IRn4NeAn26UEId_gsX-26">
          <mxGeometry relative="1" as="geometry" />
        </mxCell>
        <mxCell id="a1IRn4NeAn26UEId_gsX-16" value="Hopping to other Indian MNCs" style="rhombus;whiteSpace=wrap;html=1;shadow=0;fontFamily=Helvetica;fontSize=12;align=center;strokeWidth=1;spacing=6;spacingTop=-4;" vertex="1" parent="WIyWlLk6GJQsqaUBKTNV-1">
          <mxGeometry x="480" y="110" width="240" height="140" as="geometry" />
        </mxCell>
        <mxCell id="a1IRn4NeAn26UEId_gsX-51" style="edgeStyle=orthogonalEdgeStyle;rounded=0;orthogonalLoop=1;jettySize=auto;html=1;entryX=0.5;entryY=1;entryDx=0;entryDy=0;fontSize=12;exitX=1;exitY=0.5;exitDx=0;exitDy=0;" edge="1" parent="WIyWlLk6GJQsqaUBKTNV-1" source="WIyWlLk6GJQsqaUBKTNV-10" target="a1IRn4NeAn26UEId_gsX-9">
          <mxGeometry relative="1" as="geometry" />
        </mxCell>
        <mxCell id="a1IRn4NeAn26UEId_gsX-52" value="1 YEAR" style="edgeLabel;html=1;align=center;verticalAlign=middle;resizable=0;points=[];fontSize=12;" vertex="1" connectable="0" parent="a1IRn4NeAn26UEId_gsX-51">
          <mxGeometry x="0.667" y="-12" relative="1" as="geometry">
            <mxPoint y="-1" as="offset" />
          </mxGeometry>
        </mxCell>
        <mxCell id="a1IRn4NeAn26UEId_gsX-21" value="age: 22&amp;nbsp;" style="text;html=1;align=center;verticalAlign=middle;resizable=0;points=[];autosize=1;strokeColor=none;fillColor=none;" vertex="1" parent="WIyWlLk6GJQsqaUBKTNV-1">
          <mxGeometry x="230" y="280" width="70" height="30" as="geometry" />
        </mxCell>
        <mxCell id="a1IRn4NeAn26UEId_gsX-22" value="age: 25-26" style="text;html=1;align=center;verticalAlign=middle;resizable=0;points=[];autosize=1;strokeColor=none;fillColor=none;" vertex="1" parent="WIyWlLk6GJQsqaUBKTNV-1">
          <mxGeometry x="330" y="-115" width="80" height="30" as="geometry" />
        </mxCell>
        <mxCell id="a1IRn4NeAn26UEId_gsX-23" value="age: 33&amp;nbsp;" style="text;html=1;align=center;verticalAlign=middle;resizable=0;points=[];autosize=1;strokeColor=none;fillColor=none;" vertex="1" parent="WIyWlLk6GJQsqaUBKTNV-1">
          <mxGeometry x="220" y="-115" width="70" height="30" as="geometry" />
        </mxCell>
        <mxCell id="a1IRn4NeAn26UEId_gsX-24" value="Exam prep&lt;br&gt;&amp;nbsp;marks&lt;br&gt;Loan (Money)" style="shape=process;whiteSpace=wrap;html=1;backgroundOutline=1;" vertex="1" parent="WIyWlLk6GJQsqaUBKTNV-1">
          <mxGeometry x="330" y="60" width="120" height="60" as="geometry" />
        </mxCell>
        <mxCell id="a1IRn4NeAn26UEId_gsX-25" value="No constrains" style="shape=process;whiteSpace=wrap;html=1;backgroundOutline=1;" vertex="1" parent="WIyWlLk6GJQsqaUBKTNV-1">
          <mxGeometry x="150" y="60" width="120" height="60" as="geometry" />
        </mxCell>
        <mxCell id="a1IRn4NeAn26UEId_gsX-27" value="&lt;font style=&quot;font-size: 36px;&quot;&gt;Main Income&lt;/font&gt;" style="text;html=1;align=center;verticalAlign=middle;resizable=0;points=[];autosize=1;strokeColor=none;fillColor=none;" vertex="1" parent="WIyWlLk6GJQsqaUBKTNV-1">
          <mxGeometry x="220" y="-370" width="230" height="60" as="geometry" />
        </mxCell>
        <mxCell id="a1IRn4NeAn26UEId_gsX-26" value="Interview prep" style="shape=process;whiteSpace=wrap;html=1;backgroundOutline=1;" vertex="1" parent="WIyWlLk6GJQsqaUBKTNV-1">
          <mxGeometry x="530" y="-10" width="120" height="60" as="geometry" />
        </mxCell>
        <mxCell id="a1IRn4NeAn26UEId_gsX-31" value="&lt;h1&gt;Questions:&lt;/h1&gt;&lt;p&gt;1. Has anyone hopped from micron to other companies (package diff).&lt;/p&gt;&lt;p&gt;2.How long to get 2l per month in micron with normal hike and promotions&lt;/p&gt;&lt;p&gt;3. 10 ctc real? or is my inhand the real ctc ..while jumping how much can I demand?&lt;/p&gt;&lt;p&gt;4. MS in abroad details like what exams and toughness and fresher offers&lt;/p&gt;" style="text;html=1;strokeColor=none;fillColor=none;spacing=5;spacingTop=-20;whiteSpace=wrap;overflow=hidden;rounded=0;fontSize=12;" vertex="1" parent="WIyWlLk6GJQsqaUBKTNV-1">
          <mxGeometry x="637" y="-310" width="190" height="270" as="geometry" />
        </mxCell>
        <mxCell id="a1IRn4NeAn26UEId_gsX-33" value="&lt;font style=&quot;font-size: 36px;&quot;&gt;PASSIVE INCOME&lt;/font&gt;" style="text;html=1;strokeColor=none;fillColor=none;align=center;verticalAlign=middle;whiteSpace=wrap;rounded=0;fontSize=12;" vertex="1" parent="WIyWlLk6GJQsqaUBKTNV-1">
          <mxGeometry x="120" y="-1120" width="560" height="30" as="geometry" />
        </mxCell>
        <mxCell id="a1IRn4NeAn26UEId_gsX-38" style="edgeStyle=orthogonalEdgeStyle;rounded=0;orthogonalLoop=1;jettySize=auto;html=1;fontSize=12;" edge="1" parent="WIyWlLk6GJQsqaUBKTNV-1" source="a1IRn4NeAn26UEId_gsX-36" target="a1IRn4NeAn26UEId_gsX-37">
          <mxGeometry relative="1" as="geometry" />
        </mxCell>
        <mxCell id="a1IRn4NeAn26UEId_gsX-36" value="&lt;font size=&quot;3&quot;&gt;Index funds&lt;br&gt;&lt;/font&gt;" style="whiteSpace=wrap;html=1;fontSize=36;" vertex="1" parent="WIyWlLk6GJQsqaUBKTNV-1">
          <mxGeometry x="20" y="-980" width="120" height="60" as="geometry" />
        </mxCell>
        <mxCell id="a1IRn4NeAn26UEId_gsX-37" value="&lt;font size=&quot;3&quot;&gt;Rs.1000 -&amp;gt; Rs.120/mon&lt;br&gt;&lt;/font&gt;" style="whiteSpace=wrap;html=1;fontSize=36;" vertex="1" parent="WIyWlLk6GJQsqaUBKTNV-1">
          <mxGeometry x="480" y="-965" width="240" height="30" as="geometry" />
        </mxCell>
        <mxCell id="a1IRn4NeAn26UEId_gsX-39" value="Monthly income" style="text;html=1;align=center;verticalAlign=middle;resizable=0;points=[];autosize=1;strokeColor=none;fillColor=none;fontSize=12;" vertex="1" parent="WIyWlLk6GJQsqaUBKTNV-1">
          <mxGeometry x="650" y="-1020" width="110" height="30" as="geometry" />
        </mxCell>
        <mxCell id="a1IRn4NeAn26UEId_gsX-42" value="" style="edgeStyle=orthogonalEdgeStyle;rounded=0;orthogonalLoop=1;jettySize=auto;html=1;fontSize=12;" edge="1" parent="WIyWlLk6GJQsqaUBKTNV-1" source="a1IRn4NeAn26UEId_gsX-40" target="a1IRn4NeAn26UEId_gsX-41">
          <mxGeometry relative="1" as="geometry" />
        </mxCell>
        <mxCell id="a1IRn4NeAn26UEId_gsX-40" value="Royal Mix" style="rounded=0;whiteSpace=wrap;html=1;fontSize=12;" vertex="1" parent="WIyWlLk6GJQsqaUBKTNV-1">
          <mxGeometry x="20" y="-900" width="120" height="60" as="geometry" />
        </mxCell>
        <mxCell id="a1IRn4NeAn26UEId_gsX-41" value="GSTIN&lt;br&gt;TAX details&lt;br&gt;online really worth it?" style="whiteSpace=wrap;html=1;rounded=0;" vertex="1" parent="WIyWlLk6GJQsqaUBKTNV-1">
          <mxGeometry x="215" y="-900" width="120" height="60" as="geometry" />
        </mxCell>
        <mxCell id="a1IRn4NeAn26UEId_gsX-45" style="edgeStyle=orthogonalEdgeStyle;rounded=0;orthogonalLoop=1;jettySize=auto;html=1;fontSize=12;" edge="1" parent="WIyWlLk6GJQsqaUBKTNV-1" source="a1IRn4NeAn26UEId_gsX-43" target="a1IRn4NeAn26UEId_gsX-44">
          <mxGeometry relative="1" as="geometry" />
        </mxCell>
        <mxCell id="a1IRn4NeAn26UEId_gsX-43" value="Upworks" style="rounded=0;whiteSpace=wrap;html=1;fontSize=12;" vertex="1" parent="WIyWlLk6GJQsqaUBKTNV-1">
          <mxGeometry x="20" y="-760" width="120" height="60" as="geometry" />
        </mxCell>
        <mxCell id="a1IRn4NeAn26UEId_gsX-44" value="1. Create a new acc&lt;br&gt;and get a long term customer&lt;br&gt;&lt;br&gt;2.Tutoring" style="rounded=0;whiteSpace=wrap;html=1;fontSize=12;" vertex="1" parent="WIyWlLk6GJQsqaUBKTNV-1">
          <mxGeometry x="200" y="-770" width="120" height="80" as="geometry" />
        </mxCell>
        <mxCell id="a1IRn4NeAn26UEId_gsX-48" value="" style="edgeStyle=orthogonalEdgeStyle;rounded=0;orthogonalLoop=1;jettySize=auto;html=1;fontSize=12;" edge="1" parent="WIyWlLk6GJQsqaUBKTNV-1" source="a1IRn4NeAn26UEId_gsX-46" target="a1IRn4NeAn26UEId_gsX-47">
          <mxGeometry relative="1" as="geometry" />
        </mxCell>
        <mxCell id="a1IRn4NeAn26UEId_gsX-46" value="Deploying APPs in playstore" style="rounded=0;whiteSpace=wrap;html=1;fontSize=12;" vertex="1" parent="WIyWlLk6GJQsqaUBKTNV-1">
          <mxGeometry x="20" y="-660" width="120" height="60" as="geometry" />
        </mxCell>
        <mxCell id="a1IRn4NeAn26UEId_gsX-47" value="Research and try" style="whiteSpace=wrap;html=1;rounded=0;" vertex="1" parent="WIyWlLk6GJQsqaUBKTNV-1">
          <mxGeometry x="220" y="-660" width="120" height="60" as="geometry" />
        </mxCell>
        <mxCell id="a1IRn4NeAn26UEId_gsX-49" value="Selling templates" style="rounded=0;whiteSpace=wrap;html=1;fontSize=12;" vertex="1" parent="WIyWlLk6GJQsqaUBKTNV-1">
          <mxGeometry x="20" y="-570" width="120" height="60" as="geometry" />
        </mxCell>
        <mxCell id="a1IRn4NeAn26UEId_gsX-50" value="No" style="text;html=1;align=center;verticalAlign=middle;resizable=0;points=[];autosize=1;strokeColor=none;fillColor=none;fontSize=12;" vertex="1" parent="WIyWlLk6GJQsqaUBKTNV-1">
          <mxGeometry x="270" y="145" width="40" height="30" as="geometry" />
        </mxCell>
        <mxCell id="a1IRn4NeAn26UEId_gsX-53" value="age:24 - 33" style="text;html=1;align=center;verticalAlign=middle;resizable=0;points=[];autosize=1;strokeColor=none;fillColor=none;fontSize=12;" vertex="1" parent="WIyWlLk6GJQsqaUBKTNV-1">
          <mxGeometry x="440" y="-195" width="80" height="30" as="geometry" />
        </mxCell>
        <mxCell id="a1IRn4NeAn26UEId_gsX-55" value="&lt;h1&gt;TO DO (MS)&lt;/h1&gt;&lt;div&gt;1. talk with venkat&lt;/div&gt;&lt;div&gt;2. talk with sai&lt;/div&gt;&lt;div&gt;3. what xams and whn how&lt;/div&gt;&lt;div&gt;4. which country?&lt;/div&gt;&lt;div&gt;5. how many years in micron&lt;/div&gt;" style="text;html=1;strokeColor=none;fillColor=none;spacing=5;spacingTop=-20;whiteSpace=wrap;overflow=hidden;rounded=0;fontSize=12;" vertex="1" parent="WIyWlLk6GJQsqaUBKTNV-1">
          <mxGeometry x="60" y="585" width="190" height="135" as="geometry" />
        </mxCell>
        <mxCell id="a1IRn4NeAn26UEId_gsX-56" value="&lt;h1&gt;TO DO(other companies)&lt;/h1&gt;&lt;div&gt;1. How to prepare&lt;/div&gt;&lt;div&gt;2. Talk with someone who has done it&lt;/div&gt;&lt;div&gt;3. What company and role&lt;/div&gt;&lt;div&gt;4. Package&lt;/div&gt;" style="text;html=1;strokeColor=none;fillColor=none;spacing=5;spacingTop=-20;whiteSpace=wrap;overflow=hidden;rounded=0;fontSize=12;" vertex="1" parent="WIyWlLk6GJQsqaUBKTNV-1">
          <mxGeometry x="370" y="585" width="310" height="170" as="geometry" />
        </mxCell>
      </root>
    </mxGraphModel>
  </diagram>
</mxfile>
